<svg xmlns="http://www.w3.org/2000/svg" viewBox="0 0 300 300">
  <rect width="300" height="300" fill="#ffffff"/>
  <rect x="18" y="18" width="264" height="264" rx="40" fill="none" stroke="#000000" stroke-width="14"/>
  <path
    fill="#000000"
    fill-rule="evenodd"
    d="M 84 172 C 70 142 82 106 112 94 C 122 74 152 66 176 76 C 194 62 226 70 238 92 C 256 106 260 136 246 158 C 242 182 218 198 192 202 C 168 210 140 208 118 200 C 108 206 92 198 86 186 C 84 182 84 176 84 172 Z M 112 92 C 122 98 128 110 126 124 C 125 136 118 146 108 152 C 117 154 127 145 131 132 C 134 117 128 102 118 90 Z M 158 78 C 168 88 168 100 158 110 C 150 118 148 128 154 138 C 145 132 143 119 150 109 C 158 99 160 89 151 81 Z M 217 93 C 209 105 207 119 213 133 C 217 143 215 155 207 163 C 217 159 223 146 221 132 C 217 120 219 106 225 97 Z M 108 176 C 128 164 150 162 170 170 C 190 178 212 176 228 164 C 224 178 206 188 186 184 C 166 180 144 180 126 188 C 118 191 110 186 108 176 Z"
  />
  <path
    fill="#000000"
    d="M 98 188 C 86 208 72 226 56 242 L 40 260 C 48 268 58 268 66 260 C 82 242 100 220 116 200 C 110 197 104 193 98 188 Z"
  />
</svg>
